# AST/ASF file generated using VICON BodyLanguage
# -----------------------------------------------
:version 1.10
:name VICON
:units
  mass 1.0
  length 0.45
  angle deg
:documentation
   .ast/.asf automatically generated from VICON data using
   VICON BodyBuilder and BodyLanguage model FoxedUp or BRILLIANT.MOD
:root
   order TX TY TZ RX RY RZ
   axis XYZ
   position 0 0 0  
   orientation 0 0 0 
:bonedata
  begin
     id 1 
     name lhipjoint
     direction 0.677091 -0.635792 0.370561 
     length 2.74323 
     axis 0 0 0  XYZ
  end
  begin
     id 2 
     name lfemur
     direction 0.34202 -0.939693 0  
     length 7.44995  
     axis 0 0 20  XYZ
    dof rx ry rz
    limits (-160.0 20.0)
           (-70.0 70.0)
           (-60.0 70.0)
  end
  begin
     id 3 
     name ltibia
     direction 0.34202 -0.939693 0   
     length 7.34467   
     axis 0 0 20   XYZ
    dof rx
    limits (-10.0 170.0)
  end
  begin
     id 4 
     name lfoot
     direction 0.101953 -0.280114 0.954537   
     length 1.72105   
     axis -90 7.62852e-016 20   XYZ
    dof rx rz
    limits (-45.0 90.0)
           (-70.0 20.0)
  end
  begin
     id 5 
     name ltoes
     direction 1.53537e-011 -4.21915e-011 1   
     length 0.865872   
     axis -90 7.62852e-016 20   XYZ
    dof rx
    limits (-90.0 20.0)
  end
  begin
     id 6 
     name rhipjoint
     direction -0.695735 -0.620586 0.361699   
     length 2.81045  
     axis 0 0 0  XYZ 
  end
  begin
     id 7 
     name rfemur
     direction -0.34202 -0.939693 0   
     length 7.29387   
     axis 0 0 -20   XYZ
    dof rx ry rz
    limits (-160.0 20.0)
           (-70.0 70.0)
           (-70.0 60.0)
  end
  begin
     id 8 
     name rtibia
     direction -0.34202 -0.939693 0   
     length 7.44935   
     axis 0 0 -20   XYZ
    dof rx
    limits (-10.0 170.0)
 end
 begin
     id 9 
     name rfoot
     direction -0.104163 -0.286184 0.952496   
     length 1.77731  
     axis -90 -7.62852e-016 -20   XYZ
    dof rx rz
    limits (-45.0 90.0)
           (-20.0 70.0)
  end
  begin
     id 10 
     name rtoes
     direction -1.5355e-011 -4.21888e-011 1   
     length 0.892424   
     axis -90 -7.62852e-016 -20   XYZ
    dof rx
    limits (-90.0 20.0)
  end
  begin
     id 11 
     name lowerback
     direction 0.0100202 0.997226 -0.0737589   
     length 2.16892   
     axis 0 0 0   XYZ
    dof rx ry rz
    limits (-20.0 45.0)
           (-30.0 30.0)
           (-30.0 30.0)
  end
  begin
     id 12 
     name upperback
     direction 0.00432398 0.999988 -0.00215019   
     length 2.17326   
     axis 0 0 0   XYZ
    dof rx ry rz
    limits (-20.0 45.0)
           (-30.0 30.0)
           (-30.0 30.0)
  end
  begin
     id 13 
     name thorax
     direction -0.00195047 0.999485 0.0320434   
     length 2.18139   
     axis 0 0 0   XYZ
    dof rx ry rz
    limits (-20.0 45.0)
           (-30.0 30.0)
           (-30.0 30.0)
  end
  begin
     id 14 
     name lowerneck
     direction 0.00782762 0.986241 0.165128   
     length 1.88415   
     axis 0 0 0   XYZ
    dof rx ry rz
    limits (-20.0 45.0)
           (-30.0 30.0)
           (-30.0 30.0)
  end
  begin
     id 15 
     name upperneck
     direction 0.00988667 0.981098 -0.193258   
     length 1.9242   
     axis 0 0 0   XYZ
    dof rx ry rz
    limits (-20.0 45.0)
           (-30.0 30.0)
           (-30.0 30.0)
  end
  begin
     id 16
     name head
     direction 0.00252199 0.996513 -0.0833958  
     length 1.93887  
     axis 0 0 0   XYZ
    dof rx ry rz
    limits (-20.0 45.0)
           (-30.0 30.0)
           (-30.0 30.0)
  end
  begin
     id 17 
     name lclavicle
     direction 0.929492 0.368193 -0.0218667  
     length 3.5955  
     axis 0 0 0   XYZ
    dof ry rz
    limits (-20.0 10.0)
           (0.0 20.0)
  end
  begin
     id 18 
     name lhumerus
     direction 1 -4.48972e-011 1.41911e-027   
     length 5.2795   
     axis 180 -30 -90   XYZ
    dof rx ry rz
    limits (-60.0 90.0)
           (-90.0 90.0)
           (-90.0 90.0)
  end
  begin
     id 19
     name lradius
     direction 1 -4.48963e-011 7.05772e-027   
     length 3.53504   
     axis 180 -30 -90   XYZ
    dof rx
    limits (-10.0 170.0)
  end
  begin
     id 20
     name lwrist
     direction 1 -4.48957e-011 9.54866e-027   
     length 1.76752   
     axis -7.69462e-015 90 90   XYZ
    dof ry
    limits (-180.0 0.0)
 end
  begin
     id 21 
     name lhand
     direction 1 -4.48979e-011 1.90973e-026   
     length 0.667948   
     axis -1.21857e-014 90 90   XYZ
    dof rx rz
    limits (-90.0 90.0)
           (-45.0 45.0)
  end
  begin
     id 22 
     name lfingers
     direction 1 -4.48987e-011 3.81946e-026   
     length 0.538517   
     axis -2.43714e-014 90 90   XYZ
    dof rx
    limits (0.0 90.0)
  end
  begin
     id 23
     name lthumb
     direction 0.707107 -6.34962e-011 0.707107   
     length 0.773206   
     axis -90 45 2.85299e-015   XYZ
    dof rx rz
    limits (-45.0 45.0)
           (-45.0 45.0)
  end
  begin
     id 24 
     name rclavicle
     direction -0.898763 0.414256 -0.143584   
     length 3.5176  
     axis 0 0 0   XYZ 
    dof ry rz
    limits (-10.0 20.0)
           (-20.0 0.0)
  end
  begin
     id 25 
     name rhumerus
     direction -1 -4.48971e-011 1.129e-027  
     length 5.25035   
     axis 180 30 90   XYZ
    dof rx ry rz
    limits (-90.0 60.0)
           (-90.0 90.0)
           (-90.0 90.0)
  end
  begin
     id 26 
     name rradius
     direction -1 -4.48955e-011 6.34664e-027   
     length 3.58884   
     axis 180 30 90   XYZ
    dof rx
    limits (-10.0 170.0)
  end
  begin
     id 27 
     name rwrist
     direction -1 -4.48966e-011 9.54866e-027   
     length 1.79442   
     axis -7.69462e-015 -90 -90   XYZ
    dof ry
    limits (-180.0 0.0)
  end
  begin
     id 28
     name rhand
     direction -1 -4.48973e-011 1.90973e-026   
     length 0.779235   
     axis -1.21857e-014 -90 -90   XYZ
    dof rx rz
    limits (-90.0 90.0)
           (-45.0 45.0)
  end
  begin
     id 29
     name rfingers
     direction -1 -4.48984e-011 3.81946e-026   
     length 0.62824   
     axis -2.43714e-014 -90 -90   XYZ
    dof rx
    limits (0.0 90.0)
  end
  begin
     id 30
     name rthumb
     direction -0.707107 -6.34968e-011 0.707107   
     length 0.90203   
     axis -90 -45 -2.85299e-015   XYZ
    dof rx rz
    limits (-45.0 45.0)
           (-45.0 45.0)
  end
:hierarchy
  begin
    root lhipjoint rhipjoint lowerback
    lhipjoint lfemur
    lfemur ltibia
    ltibia lfoot
    lfoot ltoes
    rhipjoint rfemur
    rfemur rtibia
    rtibia rfoot
    rfoot rtoes
    lowerback upperback
    upperback thorax
    thorax lowerneck lclavicle rclavicle
    lowerneck upperneck
    upperneck head
    lclavicle lhumerus
    lhumerus lradius
    lradius lwrist
    lwrist lhand lthumb
    lhand lfingers
    rclavicle rhumerus
    rhumerus rradius
    rradius rwrist
    rwrist rhand rthumb
    rhand rfingers
  end

#!OML:ASF I:\Random Stuff\random\construction\7_22_03\Session 2\subj1.ASF
:FULLY-SPECIFIED
:DEGREES
30
root 7.05117 17.5666 -11.0189 5.41595 -21.2702 -2.81951
lowerback 2.43289 1.6819 2.89805
upperback -4.4747 2.4191 0.391478
thorax -5.9054 1.07147 -1.39445
lowerneck -22.7161 8.32321 6.41465
upperneck 27.3923 10.0715 -1.54291
head 13.4401 4.859 0.176426
rclavicle -4.03781e-015 6.26172e-015
rhumerus -44.0514 5.70438 -85.6925
rradius 32.8386
rwrist 1.71905
rhand -12.7034 25.6747
rfingers 7.12502
rthumb 13.3791 -3.87572
lclavicle -4.03781e-015 6.26172e-015
lhumerus -38.4731 -16.3715 94.8957
lradius 34.2679
lwrist 36.3821
lhand -19.7986 59.9361
lfingers 7.12502
lthumb 6.53429 89.8153
rfemur -5.72825 25.0668 20.6109
rtibia 9.76247
rfoot -0.034965 -29.4945
rtoes -24.9809
lfemur -9.35641 -16.0751 -15.9016
ltibia 23.9991
lfoot -22.4112 28.6575
ltoes -8.03246
31
root 7.04971 17.5669 -11.0302 5.18042 -21.1177 -2.48714
lowerback 2.63742 1.59526 2.52069
upperback -4.4318 2.28551 0.320865
thorax -5.99349 1.01986 -1.25363
lowerneck -22.547 8.34927 6.43211
upperneck 27.2497 10.1304 -1.61061
head 13.3545 4.88136 0.148664
rclavicle -1.1396e-014 -3.97569e-016
rhumerus -44.1017 5.79858 -85.6792
rradius 32.9018
rwrist 1.65787
rhand -12.4007 26.6162
rfingers 7.12502
rthumb 13.6708 -2.91483
lclavicle -1.1396e-014 -3.97569e-016
lhumerus -38.429 -16.2591 94.8482
lradius 34.1966
lwrist 36.1766
lhand -19.7727 60.0547
lfingers 7.12502
lthumb 6.55927 89.9331
rfemur -5.654 24.853 20.3673
rtibia 9.86993
rfoot -0.202856 -29.5106
rtoes -24.5469
lfemur -9.2912 -16.0862 -16.2222
ltibia 23.9283
lfoot -22.1812 28.5603
ltoes -8.42797
32
root 7.05126 17.5669 -11.0388 5.12504 -20.9863 -2.38128
lowerback 2.73622 1.55899 2.43996
upperback -4.4229 2.23208 0.253878
thorax -6.04301 0.994791 -1.2772
lowerneck -22.389 8.32824 6.45512
upperneck 27.103 10.1043 -1.63764
head 13.2639 4.87311 0.119868
rclavicle -3.36412e-014 3.47873e-016
rhumerus -44.1842 5.86957 -85.7551
rradius 32.9315
rwrist 1.44188
rhand -12.055 26.8409
rfingers 7.12502
rthumb 14.004 -2.66743
lclavicle -3.36412e-014 3.47873e-016
lhumerus -38.3986 -16.2758 94.8011
lradius 34.1035
lwrist 36.0742
lhand -19.7515 60.1952
lfingers 7.12502
lthumb 6.5797 269.927
rfemur -5.69484 24.6812 20.2892
rtibia 9.96545
rfoot -0.284639 -29.5268
rtoes -24.1406
lfemur -9.32244 -16.063 -16.2927
ltibia 23.8739
lfoot -22.095 28.3925
ltoes -8.30985
33
root 7.0523 17.5656 -11.0466 5.12938 -20.9327 -2.45554
lowerback 2.82361 1.57478 2.51527
upperback -4.4034 2.25861 0.224086
thorax -6.06786 1.0035 -1.35475
lowerneck -22.2721 8.28211 6.49747
upperneck 26.9514 10.0305 -1.66203
head 13.1787 4.84566 0.08176
rclavicle -4.3801e-014 -1.90833e-014
rhumerus -44.2911 5.88527 -85.8251
rradius 32.9054
rwrist 1.08555
rhand -14.2331 23.702
rfingers 7.12502
rthumb 11.9043 -5.93953
lclavicle -4.3801e-014 -1.90833e-014
lhumerus -38.3393 -16.3767 94.7646
lradius 33.9639
lwrist 36.1045
lhand -19.6946 60.1492
lfingers 7.12502
lthumb 6.63469 269.975
rfemur -5.72622 24.6032 20.3899
rtibia 10.0371
rfoot -0.25076 -29.4668
rtoes -24.4398
lfemur -9.32711 -16.0319 -16.1922
ltibia 23.8342
lfoot -22.0789 28.2869
ltoes -8.09494
34
root 7.05263 17.5649 -11.0535 5.14017 -20.9505 -2.56019
lowerback 2.88785 1.5936 2.56486
upperback -4.36572 2.28913 0.239801
thorax -6.06267 1.01716 -1.36991
lowerneck -22.1596 8.26353 6.57437
upperneck 26.798 10.0154 -1.78466
head 13.1053 4.83323 0.0122254
rclavicle -3.11471e-014 -9.93923e-015
rhumerus -44.3156 5.81537 -85.6506
rradius 32.8749
rwrist 1.51464
rhand -13.9839 24.1726
rfingers 7.12502
rthumb 12.1446 -5.45488
lclavicle -3.11471e-014 -9.93923e-015
lhumerus -38.1976 -16.3334 94.7008
lradius 33.7612
lwrist 35.9745
lhand -19.4806 60.0459
lfingers 7.12502
lthumb 6.84127 449.915
rfemur -5.69045 24.3575 20.5341
rtibia 9.9924
rfoot -0.309939 -29.1806
rtoes -24.5043
lfemur -9.33187 -16.0551 -16.0815
ltibia 23.8596
lfoot -22.0997 28.3197
ltoes -8.00639
35
root 7.05274 17.5641 -11.0583 5.10569 -20.9927 -2.56486
lowerback 2.93647 1.59882 2.51032
upperback -4.31608 2.29364 0.237211
thorax -6.03973 1.02268 -1.34318
lowerneck -22.0693 8.24886 6.65938
upperneck 26.6803 10.0186 -1.95589
head 13.0555 4.82194 -0.07179
rclavicle 7.60973e-015 2.98177e-015
rhumerus -44.322 5.95458 -85.6809
rradius 32.8412
rwrist 1.38176
rhand -14.0898 24.0828
rfingers 7.12502
rthumb 12.0426 -5.55068
lclavicle 7.60973e-015 2.98177e-015
lhumerus -38.0518 -16.2125 94.6157
lradius 33.6006
lwrist 35.9181
lhand -19.4482 60.0935
lfingers 7.12502
lthumb 6.87247 449.962
rfemur -5.62147 24.1263 20.571
rtibia 9.91236
rfoot -0.383491 -28.9231
rtoes -24.2489
lfemur -9.30573 -16.1485 -16.0951
ltibia 23.9038
lfoot -22.1681 28.4323
ltoes -7.83981
36
root 7.05293 17.5628 -11.0629 5.05545 -21.0188 -2.52679
lowerback 2.9987 1.62296 2.43119
upperback -4.27757 2.32029 0.190693
thorax -6.03461 1.0388 -1.35077
lowerneck -22.0546 8.1947 6.68856
upperneck 26.6663 9.93421 -1.97087
head 13.0457 4.78621 -0.0988443
rclavicle 5.22617e-014 9.93923e-015
rhumerus -44.2836 5.79556 -85.6104
rradius 32.7471
rwrist 1.51207
rhand -13.2938 25.5429
rfingers 7.12502
rthumb 12.81 -4.04407
lclavicle 5.22617e-014 9.93923e-015
lhumerus -37.9688 -16.242 94.5633
lradius 33.5019
lwrist 35.9999
lhand -19.5642 60.2264
lfingers 7.12502
lthumb 6.76054 629.902
rfemur -5.59741 23.8752 20.567
rtibia 9.85941
rfoot 0.134089 -28.6506
rtoes -25.9418
lfemur -9.27153 -16.2756 -16.1489
ltibia 23.9256
lfoot -22.2789 28.5652
ltoes -7.58174
